<?xml version="1.0" standalone="no"?>
<!DOCTYPE svg PUBLIC "-//W3C//DTD SVG 20010904//EN"
 "http://www.w3.org/TR/2001/REC-SVG-20010904/DTD/svg10.dtd">
<svg version="1.0" xmlns="http://www.w3.org/2000/svg"
 width="250.000000pt" height="250.000000pt" viewBox="0 0 250.000000 250.000000"
 preserveAspectRatio="xMidYMid meet">
<metadata>
Created by potrace 1.11, written by Peter Selinger 2001-2013
</metadata>
<g transform="translate(0.000000,250.000000) scale(0.100000,-0.100000)"
fill="#000000" stroke="none">
<path d="M1168 2345 c-2 -1 -30 -5 -63 -9 -66 -7 -177 -32 -215 -48 -14 -6
-34 -14 -45 -18 -49 -17 -176 -86 -235 -128 -131 -92 -266 -249 -342 -397 -23
-45 -90 -223 -89 -235 1 -6 -10 -67 -16 -95 -12 -50 -10 -275 3 -348 41 -227
149 -433 309 -592 71 -70 190 -163 202 -157 3 2 9 -1 12 -7 10 -15 138 -76
210 -100 383 -126 811 -31 1092 242 109 106 164 178 222 292 90 178 121 305
121 505 1 191 -28 315 -110 483 -99 203 -265 376 -464 484 -107 58 -213 93
-360 119 -34 6 -227 13 -232 9z m48 -247 c17 -16 20 -28 17 -71 -4 -56 -14
-72 -55 -82 -23 -6 -30 -2 -53 33 -22 33 -25 44 -16 61 14 24 0 35 -33 27 -40
-10 -45 -56 -6 -56 18 0 25 -11 41 -64 9 -29 -4 -61 -21 -51 -10 6 -37 -26
-42 -50 -3 -16 -10 -19 -36 -17 -45 5 -101 25 -102 37 -2 14 -21 35 -32 35 -5
0 -15 -15 -23 -32 -11 -27 -11 -35 -1 -46 11 -11 17 -11 34 -1 19 12 29 10 77
-15 54 -27 56 -29 49 -60 -3 -17 -7 -31 -8 -32 -28 -15 -97 -32 -113 -28 -18
5 -23 2 -23 -14 0 -11 7 -25 15 -32 15 -12 16 -11 19 13 1 12 92 35 102 25 3
-3 6 -16 7 -29 2 -13 11 -39 21 -58 l18 -34 -29 -41 c-20 -28 -37 -42 -56 -44
-15 -2 -27 -9 -27 -17 0 -20 29 -45 52 -45 16 0 19 5 14 22 -4 17 3 31 26 55
38 39 45 40 81 8 21 -19 27 -31 22 -46 -4 -11 -13 -18 -20 -15 -21 8 -26 -23
-5 -34 30 -16 39 -12 38 20 -1 39 1 41 44 34 41 -7 55 -33 29 -56 -9 -9 -99
-100 -201 -203 -122 -123 -186 -182 -188 -171 -2 9 -10 16 -18 16 -16 0 -16 2
-8 24 5 12 15 15 48 10 l41 -6 -40 25 c-32 20 -41 32 -40 52 0 23 7 30 46 44
33 13 49 15 62 7 22 -14 31 -3 23 29 -7 26 -36 35 -36 11 0 -24 -79 -41 -112
-24 -15 7 -16 12 -5 28 6 11 17 18 24 16 17 -7 24 5 12 21 -15 17 -29 17 -29
-1 0 -22 -25 -39 -38 -24 -13 16 10 87 34 105 20 14 10 33 -17 33 -16 0 -19
-5 -14 -20 4 -11 -1 -32 -12 -50 -18 -32 -22 -34 -47 -24 -17 7 -22 34 -6 34
6 0 10 5 10 10 0 6 -9 10 -20 10 -14 0 -20 -6 -18 -17 2 -10 -3 -18 -9 -17 -7
1 -22 2 -32 3 -15 1 -20 10 -23 47 -2 31 1 48 9 51 25 10 14 33 -16 33 -33 0
-51 -17 -27 -26 11 -4 16 -19 16 -48 0 -48 -7 -61 -36 -70 -17 -5 -27 0 -44
21 -11 15 -19 35 -17 45 7 24 -8 32 -33 18 -26 -14 -26 -26 0 -33 11 -3 26
-20 34 -38 14 -32 13 -34 -15 -51 -16 -10 -29 -24 -29 -32 0 -22 -15 -27 -45
-16 -25 9 -26 13 -24 77 3 84 20 169 54 258 33 88 52 116 65 95 5 -9 5 -19 -2
-27 -8 -10 -7 -12 3 -8 8 2 20 1 28 -4 12 -8 12 -12 2 -25 -8 -9 -9 -16 -3
-16 5 0 12 7 16 15 7 19 36 8 37 -14 1 -14 2 -14 6 2 2 9 13 17 24 17 11 0 29
6 40 13 17 10 23 10 26 0 3 -7 9 -13 15 -13 6 0 6 6 -2 15 -13 15 -5 39 11 30
5 -4 9 -1 9 4 0 6 -4 11 -10 11 -5 0 -7 6 -4 14 3 8 13 12 22 10 15 -5 15 -4
0 9 -25 20 -23 47 5 49 12 0 28 2 34 2 7 1 12 6 10 11 -1 6 -6 8 -12 6 -43
-17 -88 -6 -55 14 6 3 10 12 10 18 0 7 -5 4 -11 -5 -16 -28 -32 -22 -25 10 5
23 4 25 -6 11 -14 -17 -38 -15 -34 4 1 7 1 9 -1 5 -7 -12 -43 -9 -43 3 0 17
111 119 175 161 84 55 175 95 264 118 131 33 157 34 187 8z m179 7 c115 -21
239 -70 323 -128 l44 -29 -38 -39 c-21 -22 -44 -39 -51 -39 -7 0 -13 -7 -13
-15 0 -21 -32 -35 -94 -40 -47 -4 -57 -2 -65 14 -8 14 -6 22 9 36 10 9 23 14
29 11 16 -10 23 12 11 34 -14 25 -42 27 -38 2 2 -11 -3 -26 -11 -36 -13 -15
-15 -15 -31 -1 -17 15 -17 19 -1 73 13 45 22 58 39 60 30 5 28 30 -4 42 -40
16 -46 13 -39 -19 4 -19 1 -40 -9 -58 -31 -56 -30 -56 -65 -39 -32 17 -41 36
-17 36 25 0 28 18 5 30 -28 16 -56 5 -39 -15 18 -22 4 -33 -36 -26 -32 5 -38
10 -41 36 -1 17 -5 45 -7 63 -4 23 -1 32 10 32 8 0 17 6 20 13 5 15 40 15 109
2z m184 -343 c-6 -10 -20 -24 -30 -31 -17 -10 -19 -8 -19 13 0 18 8 27 28 34
33 11 37 9 21 -16z m416 -79 c56 -95 102 -232 83 -245 -18 -11 -46 -10 -53 1
-3 5 5 17 17 25 12 9 19 19 15 23 -4 3 -13 -2 -21 -12 -7 -10 -18 -15 -23 -12
-15 10 -3 56 18 71 20 13 16 26 -9 26 -8 0 -12 -6 -9 -13 3 -7 -3 -24 -12 -36
-15 -20 -21 -22 -39 -12 -11 6 -30 11 -41 11 -17 0 -21 6 -21 34 0 19 5 38 10
41 17 10 2 24 -20 18 -16 -4 -18 -8 -9 -19 18 -22 2 -84 -21 -84 -20 0 -46 36
-42 58 3 14 0 15 -22 6 -14 -5 -13 -10 9 -30 30 -27 32 -50 6 -59 -10 -3 -21
-15 -24 -25 -4 -17 -9 -19 -32 -10 -40 15 -43 12 -8 -11 35 -22 35 -45 -1 -59
-21 -9 -21 -9 -1 -9 31 -1 50 -57 30 -88 -9 -13 -22 -23 -30 -23 -8 0 -15 -4
-15 -10 0 -5 2 -10 4 -10 2 0 12 -3 20 -6 12 -4 15 -2 10 9 -3 9 4 21 17 31
21 15 25 14 44 -4 20 -19 23 -20 50 -20 17 0 21 -45 5 -55 -18 -11 -11 -25 12
-25 15 0 19 3 11 11 -17 17 -3 59 24 65 13 4 27 4 30 0 3 -3 12 3 20 14 13 19
16 19 38 4 14 -9 25 -25 25 -35 0 -20 15 -26 24 -10 4 5 -8 23 -25 40 -29 30
-31 58 -3 47 7 -3 16 -1 19 4 4 6 -1 10 -9 10 -18 0 -20 8 -8 28 7 9 16 10 41
1 l34 -12 -6 -111 c-6 -118 -8 -128 -32 -213 -46 -157 -160 -326 -285 -424
-56 -44 -89 -41 -132 12 -26 32 -28 39 -17 62 7 15 16 24 21 21 4 -3 6 -9 3
-14 -11 -18 17 -21 30 -4 17 24 8 46 -16 39 -16 -6 -17 -3 -8 23 l10 29 60
-14 c44 -12 59 -20 59 -33 0 -30 29 -33 40 -4 6 14 10 29 10 34 0 16 -21 22
-35 10 -17 -14 -100 23 -122 56 -24 38 -13 57 51 82 52 21 60 22 68 8 20 -36
48 6 32 48 -9 22 -41 20 -47 -3 -3 -14 -19 -21 -58 -28 -56 -10 -89 -2 -89 20
0 19 21 37 42 37 21 0 24 20 6 38 -17 17 -28 15 -28 -6 0 -11 -8 -26 -18 -35
-16 -15 -19 -15 -29 2 -9 15 -8 30 4 70 9 28 22 51 29 51 22 0 28 23 9 37 -31
22 -48 17 -41 -12 6 -23 -4 -52 -32 -93 -12 -17 -62 1 -62 23 0 8 5 14 11 13
21 -5 20 20 0 27 -28 9 -45 -3 -31 -20 15 -18 0 -25 -36 -19 -33 6 -37 9 -40
31 -10 64 -7 83 11 98 19 14 19 16 2 29 -10 8 -28 11 -40 8 l-22 -5 20 23 c52
59 529 540 536 540 5 0 29 -35 54 -77z m105 -301 c6 -35 5 -39 -12 -34 -18 4
-55 49 -47 56 12 10 44 24 48 21 2 -2 7 -22 11 -43z m-1691 -192 c13 -6 17
-17 14 -35 -3 -14 -9 -25 -14 -25 -5 0 -12 0 -16 0 -9 0 -16 70 -8 70 4 0 14
-4 24 -10z m989 -36 c11 -8 13 -22 7 -63 -6 -47 -11 -54 -38 -66 -25 -10 -33
-10 -44 0 -7 8 -13 17 -13 21 0 4 -8 16 -17 26 -16 18 -14 21 33 69 30 30 50
45 53 37 2 -7 11 -18 19 -24z m-977 -56 c2 -25 5 -33 18 -60 12 -23 12 -30 1
-43 -12 -15 -14 -15 -23 0 -5 9 -6 28 -3 42 4 14 3 22 -2 19 -11 -6 -24 33
-16 46 8 12 24 10 25 -4z m869 -63 c13 -40 8 -52 -26 -65 -15 -6 -24 -18 -24
-30 0 -29 -23 -35 -76 -20 l-46 13 73 73 c40 40 76 71 80 68 4 -2 13 -20 19
-39z m-488 -58 c-14 -16 -17 -16 -25 -2 -12 23 10 49 28 32 11 -10 10 -15 -3
-30z m-304 -13 l27 -25 -22 -18 c-24 -20 -21 -31 8 -31 11 0 16 5 14 13 -8 21
9 35 38 30 24 -5 27 -10 27 -44 0 -28 -4 -39 -15 -39 -25 0 -17 -27 10 -32 30
-6 42 7 25 27 -19 23 -1 81 23 74 1 0 14 4 28 10 23 8 28 6 38 -15 6 -15 7
-24 1 -24 -6 0 -10 -8 -10 -17 -1 -10 -30 -47 -66 -83 l-65 -65 -24 29 c-13
16 -42 67 -65 113 -41 81 -42 84 -25 103 22 25 20 25 53 -6z m254 -45 c-28
-30 -37 -30 -45 1 -7 28 28 53 53 37 17 -10 16 -13 -8 -38z m430 -37 c16 -9
26 -22 23 -30 -3 -8 -5 -20 -5 -28 0 -20 -90 -58 -104 -44 -17 17 -26 12 -26
-14 0 -34 17 -42 38 -17 9 11 33 22 54 24 29 4 37 1 41 -14 3 -11 1 -22 -4
-25 -5 -3 -9 -10 -9 -15 0 -6 4 -8 9 -4 5 3 16 -9 25 -26 15 -31 15 -32 -19
-74 -20 -23 -43 -42 -52 -41 -26 2 -26 -22 1 -39 29 -19 49 -12 41 15 -4 12 5
28 25 49 18 17 34 31 36 31 3 0 20 -12 39 -27 27 -22 31 -30 22 -44 -6 -9 -17
-15 -24 -12 -21 8 -15 -25 6 -37 22 -11 34 0 26 22 -9 22 20 41 42 30 10 -5
24 -7 31 -5 9 4 12 -8 10 -43 -1 -36 -6 -48 -20 -52 -10 -2 -18 -10 -18 -18 0
-16 43 -29 66 -20 15 6 15 8 -1 26 -16 17 -17 25 -7 58 10 33 16 38 58 48 44
10 46 10 57 -14 9 -20 9 -26 -1 -30 -6 -2 -12 -10 -12 -18 0 -19 34 -18 50 1
12 14 11 16 -7 14 -8 -1 -21 29 -22 51 0 8 11 23 24 33 25 18 26 18 63 -17 20
-20 40 -36 44 -36 20 0 -23 -52 -57 -69 -61 -30 -183 -68 -251 -78 -103 -16
-277 -6 -340 17 -16 6 -29 10 -29 9 0 -13 -200 77 -243 110 l-24 18 183 185
c200 204 184 195 261 150z"/>
<path d="M675 1830 c3 -5 11 -10 16 -10 6 0 7 5 4 10 -3 6 -11 10 -16 10 -6 0
-7 -4 -4 -10z"/>
<path d="M740 1666 c0 -2 6 -9 14 -15 10 -9 15 -8 20 4 4 10 -1 15 -14 15 -11
0 -20 -2 -20 -4z"/>
<path d="M961 1621 c-7 -5 -6 -14 5 -29 20 -28 31 -28 36 2 5 25 -18 41 -41
27z"/>
<path d="M465 1590 c3 -5 11 -10 16 -10 6 0 7 5 4 10 -3 6 -11 10 -16 10 -6 0
-7 -4 -4 -10z"/>
<path d="M640 1570 c0 -5 5 -10 11 -10 5 0 7 5 4 10 -3 6 -8 10 -11 10 -2 0
-4 -4 -4 -10z"/>
<path d="M700 1570 c0 -5 5 -10 10 -10 6 0 10 5 10 10 0 6 -4 10 -10 10 -5 0
-10 -4 -10 -10z"/>
<path d="M570 1540 c0 -5 7 -10 16 -10 8 0 12 5 9 10 -3 6 -10 10 -16 10 -5 0
-9 -4 -9 -10z"/>
<path d="M1946 1531 c-4 -5 -2 -12 3 -15 5 -4 12 -2 15 3 4 5 2 12 -3 15 -5 4
-12 2 -15 -3z"/>
<path d="M1692 1463 c-8 -14 -9 -24 -2 -28 12 -7 24 18 18 37 -3 8 -9 5 -16
-9z"/>
<path d="M1696 1361 c-4 -5 -2 -12 3 -15 5 -4 12 -2 15 3 4 5 2 12 -3 15 -5 4
-12 2 -15 -3z"/>
<path d="M1740 1320 c0 -5 4 -10 9 -10 6 0 13 5 16 10 3 6 -1 10 -9 10 -9 0
-16 -4 -16 -10z"/>
<path d="M1815 1220 c3 -5 10 -10 16 -10 5 0 9 5 9 10 0 6 -7 10 -16 10 -8 0
-12 -4 -9 -10z"/>
<path d="M1966 1211 c-4 -5 -2 -12 3 -15 5 -4 12 -2 15 3 4 5 2 12 -3 15 -5 4
-12 2 -15 -3z"/>
<path d="M1154 717 c-8 -22 8 -40 31 -35 16 3 16 5 -3 28 -19 23 -21 23 -28 7z"/>
</g>
</svg>
